FFmpeg version SVN-r25716, Copyright (c) 2000-2010 the FFmpeg developers  built on Nov 10 2010 12:23:18 with gcc 4.1.2 20080704 (Red Hat 4.1.2-48)  configuration: --enable-libmp3lame --enable-shared --disable-mmx --arch=x86_64  libavutil     50.33. 0 / 50.33. 0  libavcore      0.12. 1 /  0.12. 1  libavcodec    52.94. 4 / 52.94. 4  libavformat   52.84. 0 / 52.84. 0  libavdevice   52. 2. 2 / 52. 2. 2  libavfilter    1.59. 0 /  1.59. 0  libswscale     0.12. 0 /  0.12. 0Seems stream 0 codec frame rate differs from container frame rate: 1000.00 (1000/1) -> 5.00 (5/1)Input #0, mov,mp4,m4a,3gp,3g2,mj2, from '/RAID10/data/converted_video_files/25566.mov':  Duration: 00:00:03.40, start: 0.000000, bitrate: 4665 kb/s    Stream #0.0(eng): Video: mjpeg, gray, 984x488 [PAR 72:72 DAR 123:61], 4663 kb/s, 5 fps, 5 tbr, 1k tbn, 1k tbc[buffer @ 0xcfdbee0] w:984 h:488 pixfmt:gray[ffsink @ 0xcfdc0c0] auto-inserting filter 'auto-inserted scaler 0' between the filter 'src' and the filter 'out'[scale @ 0xcfdca20] w:984 h:488 fmt:gray -> w:984 h:488 fmt:yuv420p flags:0x4Output #0, flv, to '/RAID10/data/converted_video_files/25566.flv':  Metadata:    encoder         : Lavf52.84.0    Stream #0.0(eng): Video: flv, yuv420p, 984x488 [PAR 1:1 DAR 123:61], q=2-31, 600 kb/s, 1k tbn, 24 tbcStream mapping:  Stream #0.0 -> #0.0Press [q] to stop encodingframe=   17 fps=  0 q=31.0 Lsize=     636kB time=3.25 bitrate=1603.3kbits/s    video:635kB audio:0kB global headers:0kB muxing overhead 0.074081%